<?xml version="1.0" encoding="utf-8"?>
<!-- Generator: Adobe Illustrator 23.0.3, SVG Export Plug-In . SVG Version: 6.00 Build 0)  -->
<svg version="1.1" id="Layer_1" xmlns="http://www.w3.org/2000/svg" xmlns:xlink="http://www.w3.org/1999/xlink" x="0px" y="0px"
	 viewBox="0 0 1644 1644" style="enable-background:new 0 0 1644 1644;" xml:space="preserve">
<style type="text/css">
	.st0{fill:url(#SVGID_1_);}
	.st1{fill:url(#SVGID_2_);}
	.st2{fill:url(#SVGID_3_);}
	.st3{fill:url(#SVGID_4_);}
	.st4{fill:url(#SVGID_5_);}
	.st5{fill:url(#SVGID_6_);}
	.st6{fill:url(#SVGID_7_);}
	.st7{fill:url(#SVGID_8_);}
	.st8{fill:url(#SVGID_9_);}
	.st9{fill:url(#SVGID_10_);}
	.st10{fill:url(#SVGID_11_);}
	.st11{fill:url(#SVGID_12_);}
	.st12{fill:url(#SVGID_13_);stroke:#000000;stroke-linecap:round;stroke-linejoin:round;stroke-miterlimit:10;}
	.st13{fill:url(#SVGID_14_);stroke:#000000;stroke-linecap:round;stroke-linejoin:round;stroke-miterlimit:10;}
	.st14{fill:url(#SVGID_15_);stroke:#000000;stroke-width:2;stroke-linecap:round;stroke-linejoin:round;stroke-miterlimit:10;}
	.st15{fill:url(#SVGID_16_);stroke:#000000;stroke-width:2;stroke-linecap:round;stroke-linejoin:round;stroke-miterlimit:10;}
	.st16{fill:#231F20;}
	.st17{fill:#BCBEC0;}
	.st18{fill:#808285;}
	.st19{fill:#FFFFFF;}
</style>
<g>
	<path class="st16" d="M823.12,88.1C415.99,87.82,86.91,414.9,86.83,819.61c1.3,410.54,328.67,726.56,718.12,734.34
		c411.15,8.23,744.24-321.17,748.42-724.9C1557.63,419.69,1227.14,88.38,823.12,88.1z M1516.19,755.25
		c0.28,3.65-4.87,8.64-8.68,11.44c-28.87,21.17-60.5,37.23-95.5,44.65c-12.61,2.64-26.6-1.3-44.04-2.51
		c36.13-53.16,81.31-88.28,141.32-110.99C1511.89,717.98,1514.81,736.56,1516.19,755.25z M1485.49,602.66
		c3.41,18.05,9.94,35.48,16.14,56.93c-56.61-22.95-98.78-57.22-131.63-104.74c25.43-11.23,48.22-5.27,71.78,2.68
		C1464.89,565.27,1480.7,577.27,1485.49,602.66z M1462.54,547.51c-8.11-3.08-13.26-5.07-18.69-7.14
		C1455.68,529.22,1455.68,529.22,1462.54,547.51z M1449.19,513.53c-25.63,15.61-50.85,18.73-81.39,8.19
		c17.92-19.99,34.39-38.4,53.08-59.33C1431.23,481.04,1439.95,496.86,1449.19,513.53z M1382.93,405.25
		c10.62,15.41,19.83,28.83,29.76,43.15c-16.95,14.72-33.05,28.71-45.3,39.33C1371.62,465.39,1376.97,436.92,1382.93,405.25z
		 M1320.2,778.24c-22.95-20.36-42.62-40.83-65.33-57.06c-22.87-16.34-48.74-28.39-71.01-41.04c22.3-12.65,48.09-24.66,70.84-40.92
		c22.79-16.22,42.58-36.7,65.25-56.73C1299.11,647.79,1298.83,712.43,1320.2,778.24z M1231.19,1081.53
		c-50.16-21.94-90.63-55.23-122.95-102.11c19.02-4.1,35.6-8.27,53.61-2.47c63.34,20.4,114.4,56.97,153.28,113.02
		C1284.03,1101.88,1257.59,1093.04,1231.19,1081.53z M1315.21,1122c-41.93,59.45-96.27,98.5-165.41,115.29
		c-12.12,2.96-26.03-1.7-42.34-3.08c29.16-44.04,64.72-74.86,108.07-96.35C1246.15,1122.69,1277.34,1107.44,1315.21,1122z
		 M1108.48,947.83c42.21-59.61,96.39-98.46,165.41-114.96c12.29-2.92,26.36,1.7,42.42,3.08c-36.7,53.89-83.37,88.97-141.12,110.58
		C1153.7,954.56,1132.98,956.22,1108.48,947.83z M1315.29,553.91c-41.24,59.25-94.77,97.32-162,114.92
		c-12.94,3.41-27.86-0.77-46.47-1.7c5.64-8.03,8.76-13.02,12.37-17.64c36.01-45.9,81.79-77.57,136.98-96.47
		C1275.55,546.37,1293.72,548.07,1315.29,553.91z M1114.16,420.34c-1.82-2.43-2.96-5.39-4.46-8.19c23.15-8.27,44.53-6.41,66.54,2.03
		c57.02,21.78,103.37,56.53,140.83,111.27c-18.61,0.57-34.43,4.42-48.38,0.85C1204.63,509.92,1153.45,473.46,1114.16,420.34z
		 M1185.08,701.4c48.22,19.63,88.24,49.92,120.11,91c3.41,4.38,6,9.29,9.16,14.27c-24.21,8.35-46.07,5.76-68.41-2.84
		c-50.49-19.46-92.78-49.59-126.11-92.21c-3.81-4.87-6.97-10.18-10.46-15.29C1136.63,685.1,1160.87,691.55,1185.08,701.4z
		 M1307.06,316.16c1.22,6.16,4.5,12.69,3.33,18.37c-10.87,52.39-7.38,103.81,8.19,154.74c0.37,1.05-0.32,2.47-0.93,6.49
		c-37.79-45.46-82.56-78.63-141.04-99.11c50-18.37,90.39-44.89,124.65-80.66C1303.21,316.04,1305.12,316.12,1307.06,316.16z
		 M1264.44,280.52c6.24,6.49,13.63,11.88,20.32,17.88c1.38,1.22,2.03,3.16,3.53,5.64c-38.24,41.44-84.75,69.14-139.33,82.12
		c-11.72,2.8-25.26-2.11-40.43-3.73c3.93-6.37,6.41-11.39,9.77-15.69c31.59-40.55,71.13-70.6,118.61-90.55
		C1247.82,271.6,1256.05,271.84,1264.44,280.52z M1112.5,188.63c24.37,5.19,93.92,45.5,121.74,70.48
		c-51.5,20.84-92.78,51.74-128.18,92.25C1120.61,297.31,1123.65,243.41,1112.5,188.63z M1115.21,449.29
		c32.24,37.39,71.37,65,117.07,83.41c2.88,1.18,5.64,2.55,10.71,4.87c-4.1,2.55-6.33,4.42-8.92,5.47
		c-47.65,19.02-88.16,47.97-121.45,87.1c-1.66,1.99-4.46,3.04-6.85,4.46c3.93-21.82,8.92-43.55,11.56-65.53
		c4.79-39.38,1.05-78.26-10.34-116.38c-1.01-3.37-0.97-7.06-1.3-10.62C1108.93,444.39,1112.66,446.33,1115.21,449.29z
		 M1105.89,725.28c38.04,42.98,82.44,75.59,141,96.84c-59.45,21.86-105.39,54.83-142.94,100.69
		C1124.14,857.2,1124.66,791.79,1105.89,725.28z M1058.12,637.33c-37.63-44.32-82.77-76.97-141.56-98.95
		c58.31-22.1,104.14-54.54,141.65-99.51C1038.09,505.17,1037.84,570.91,1058.12,637.33z M842.18,1149.01
		c21.94,19.71,41.57,40.47,64.31,56.93c22.59,16.34,48.3,28.43,74.41,43.39c-54.22,20.76-100.32,52.96-137.43,98.34
		C863.67,1281,863.76,1215.23,842.18,1149.01z M969.27,371.6c-49.27-22.02-89.98-54.38-121.61-101.54
		c17.68-3.45,32.64-8.68,49.68-3.57c60.66,18.21,110.22,52.11,148.62,102.31c2.68,3.45,4.58,7.46,7.22,11.84
		C1022.03,392.68,995.43,383.27,969.27,371.6z M1054.47,413.04c-10.34,12.53-19.75,25.39-30.66,36.82
		c-34.55,36.01-76.03,61.03-123.8,75.51c-16.79,5.11-31.35,3.93-50.97-4.01c17.88-29.12,41.52-52.76,69.55-71.13
		c20.8-13.67,43.67-24.37,66.26-35.12C1006.46,404.77,1029.2,403.02,1054.47,413.04z M985.61,396.58
		c-58.68,21.01-104.34,54.62-142.5,99.88c20.64-66.87,20.72-133.29-0.04-200.36C880.91,342.03,927.5,374.96,985.61,396.58z
		 M843.2,580.39c38.2,44.81,83.58,78.59,142.78,99.72c-59.49,21.74-105.27,55.07-143.02,100.57
		C863.76,713.77,863.88,647.39,843.2,580.39z M843.52,864.33c37.83,44.36,82.6,78.14,141.61,99.31
		c-57.83,22.59-104.5,54.62-141.73,100C864.16,996.69,863.19,930.88,843.52,864.33z M859.25,1357.72
		c38.16-47.89,86.33-81.35,145.46-97.28c14.6-3.93,31.14-0.61,46.8-0.61c0.36,2.11,0.73,4.22,1.14,6.33
		c-40.02,56.73-93.39,95.17-160.95,112.37c-12.85,3.24-27.62-1.09-45.09-2.15C852.24,1367.98,855.4,1362.55,859.25,1357.72z
		 M1005.04,1235.26c-65.69-17.84-117.4-56.2-157.26-112.98c27.9-11.39,52.31-5.07,76.72,5.03c48.74,20.07,89.25,50.69,121.09,92.74
		c2.55,3.41,4.38,7.34,9.37,15.77C1035.81,1235.83,1019.43,1239.15,1005.04,1235.26z M849.68,1089.52c1.7-3.04,3.49-7.5,6.29-11.19
		c37.75-49.8,86.5-84.35,146.67-101.01c15.04-4.14,32.2-0.61,48.42-0.61c0.49,1.7,0.97,3.45,1.46,5.15
		c-32.12,47.61-75.59,81.22-128.71,102.92C900.21,1094.38,876.37,1101.88,849.68,1089.52z M994.98,949.25
		c-60.46-20.76-109.04-56.61-148.99-113.38c17.72-1.18,32.72-5.72,45.78-2.43c67.56,17.03,120.64,55.72,162.89,115
		C1032.69,954.07,1014.36,955.86,994.98,949.25z M849.32,806.55c2.27-4.14,4.06-8.76,6.89-12.53
		c36.58-48.22,84.27-80.45,141.32-100.04c18.86-6.49,36.33-2.68,56.33,1.26c-13.71,22.71-30.62,40.79-49.72,57.06
		c-25.75,21.98-54.46,38.65-86.05,50.89C895.87,811.78,873.89,815.71,849.32,806.55z M978.27,659.15
		c-53.12-21.82-96.55-55.31-131.55-106.29c15-1.95,28.06-7.18,39.29-4.58c70.56,16.3,125.75,55.68,168.04,115.53
		C1025.96,674.88,1002.16,668.96,978.27,659.15z M1054.35,161.78c-15.53,64.92-16.1,128.18,3.77,191.85
		c-37.67-44.89-83.45-77.45-141.73-99.19C972.19,233.72,1016.15,202.9,1054.35,161.78z M975.11,138.95
		c18.65,4.42,37.19,9.41,55.76,14.19c0.73,1.74,1.5,3.45,2.23,5.19c-18.25,15.45-35.28,32.77-55.15,45.78
		c-20.28,13.26-43.15,22.67-65.17,33.09c-20.15,9.57-41.04,9.45-64.72,1.09c30.09-44.69,68.82-76.36,115.77-98.38
		C967.08,138.43,971.58,138.1,975.11,138.95z M860.92,122.16c24.45,2.55,49.59,5.19,74.82,7.83
		c-31.95,27.33-62.69,53.61-90.92,77.78C849.52,182.79,854.91,154.04,860.92,122.16z M844.33,122.37
		c-6.61,32.08-12.94,62.53-19.22,93.02c-2.92,0.28-5.88,0.53-8.84,0.81c-6.53-30.37-13.06-60.75-20.19-93.84H844.33z M820.37,503.79
		c-28.22-72.99-28.1-142.01,0-214.8C848.79,361.7,848.79,430.76,820.37,503.79z M820.41,787.69c-28.18-72.79-28.1-141.52,0-210.34
		C848.79,646.21,848.51,714.98,820.41,787.69z M580.34,1009.63c0,0,6.24,0.24,7.95,1.78c20.52,18.53,39.29,39.38,61.48,55.51
		c21.57,15.77,46.63,26.8,70.92,40.39c-53.49,19.91-99.19,51.95-136.98,96.67C601.06,1138.42,605.32,1073.74,580.34,1009.63z
		 M559.46,720.26c28.1,67.76,27.86,135.64,0.12,203.45C531.56,855.66,531.44,787.9,559.46,720.26z M559.42,436.64
		c28.14,67.68,28.06,135.64,0.28,203.65C531.07,572.77,531.8,504.97,559.42,436.64z M559.42,1004.32
		c28.02,67.72,28.26,135.56,0.04,203.24C531.48,1139.96,531.64,1072.32,559.42,1004.32z M580.87,723.18
		c22.83,20.44,42.46,41.04,65.13,57.34c22.71,16.34,48.5,28.43,74.49,43.23c-54.38,20.07-99.35,52.27-137.06,96.67
		C602.56,854.56,603.33,789.23,580.87,723.18z M586.55,1231.28c10.18-12.53,19.02-24.78,29.28-35.69
		c33.29-35.4,73.2-61.19,119.79-74.61c17.15-4.91,36.21-3.04,54.42-4.3c0.65,2.23,1.3,4.46,1.95,6.69
		c-24.98,37.27-57.54,66.67-97.04,88.04c-16.3,8.8-33.94,15.41-51.46,21.65C620.85,1241.1,616.68,1240.41,586.55,1231.28z
		 M788.17,1366.68c1.42,1.95,2.31,4.3,3.97,7.42c-19.71,5.84-37.71,7.75-57.06,1.18c-61.15-20.72-110.18-56.93-150.4-114.19
		c18.41-0.77,33.98-4.91,47.69-1.46C697.13,1276.01,748.55,1313.08,788.17,1366.68z M729.53,1089.68
		c-52.92-19.3-96.88-50.41-131.83-94.4c-3.53-4.46-6.49-9.33-11.03-15.9c19.06-4.1,35.48-8.27,53.61-2.43
		c56.16,18.21,103.04,49.55,140.06,95.5c3.65,4.5,6.89,9.33,10.14,14.11c0.61,0.89,0.32,2.43,0.49,4.22
		C770.37,1097.1,750.54,1097.34,729.53,1089.68z M586.75,947.75c41.44-58.6,94.61-97.28,162.33-114.27
		c12.94-3.24,27.74,0.97,46.27,1.95c-8.84,11.72-14.48,20.11-21.05,27.7c-34.51,39.94-76.68,68.65-126.89,85.32
		C623.37,956.43,615.95,956.39,586.75,947.75z M731.48,806.47c-55.03-19.59-100.45-51.78-135.97-98.01c-3-3.85-5.11-8.39-7.46-12.33
		c26.24-10.71,50-4.79,73.76,4.74c47.16,18.94,86.58,48.01,118.33,87.51c4.3,5.35,8.15,11.07,13.5,18.41
		C771.01,812.27,751.96,813.73,731.48,806.47z M586.79,664.21c37.23-54.05,86.21-90.06,147.32-111.03
		c19.42-6.65,37.43-4.54,60.1,0.53c-11.07,13.54-19.91,25.75-30.13,36.66c-30.45,32.52-67.15,55.64-108.68,71.78
		C633.42,670.66,611.85,672.73,586.79,664.21z M651.83,413.24c57.95,21.49,104.78,56.57,141.73,109.61
		c-22.75,5.72-41.48,7.18-61.39,0.08c-55.64-19.75-101.66-52.15-137.43-99.11c-2.64-3.49-4.91-7.22-7.87-11.56
		C609.74,404.85,630.26,405.21,651.83,413.24z M586.51,380.76c37.1-53.61,85.08-89.01,144.48-110.54
		c20.64-7.46,39.66-5.72,62.21-0.77c-23.72,36.86-53.45,64.84-89.5,85.32C668.54,374.76,632.82,395.85,586.51,380.76z
		 M655.73,396.78c57.58-22.42,104.5-54.62,141.69-100.41c-20.15,67.48-20.32,133.94,0.69,200.89
		C760.31,451.77,714.81,418.11,655.73,396.78z M779.81,122.25c6.08,31.91,11.56,60.75,16.38,85.97c-27.82-23.93-58.47-50.32-91-78.3
		C730.22,127.31,755.52,124.76,779.81,122.25z M666.19,138.79c3.49-0.81,7.99-0.16,11.27,1.38c47,21.94,85.4,54.01,115.65,98.34
		c-20.11,5.8-37.55,8.07-56.45,1.87c-50.16-16.42-92.62-43.84-130.58-86.17C628.11,148.48,647.09,143.33,666.19,138.79z
		 M586.18,161.74c38.93,40.35,81.87,72.91,138.56,92.25c-57.7,21.9-103.85,54.18-141.73,99.15
		C602.48,289.48,602.48,226.38,586.18,161.74z M724.66,538.1c-58.03,21.74-103.41,54.01-140.43,98.34
		c18.98-91.32,18.53-106.97-2.03-200.16C620.81,483.35,665.34,516.73,724.66,538.1z M545.67,189.15
		c2.68-11.72,8.27-17.92,22.02-18.65c20.03,62.89,16.95,124.65-5.84,185.85c-1.5,0.41-3,0.81-4.5,1.22
		c-3.57-11.64-7.5-23.15-10.58-34.91C535.17,278.29,535.49,233.84,545.67,189.15z M537.68,640.09
		c-37.47-45.54-82.81-79.4-142.94-101.58c59.08-22.71,105.11-55.43,142.25-101.26C515.95,505.13,515.54,572.49,537.68,640.09z
		 M382.05,552.21c62.08,20.56,111.68,57.02,150.32,112.04c-20.84,6.16-39.42,8.19-59.2,1.34c-55.8-19.26-101.99-51.62-138.16-98.26
		c-3.04-3.85-5.31-8.31-8.84-13.91C345.79,549.13,363.07,545.93,382.05,552.21z M326.45,521.59
		c26.72-39.46,60.95-69.71,102.68-91.65c10.26-5.35,20.92-9.98,31.71-14.19c31.1-12.08,35-12.17,74.09-3.16
		c-18.57,19.79-34.47,38.97-52.72,55.56c-28.95,26.32-63.02,44.44-100.49,56.04C360.84,530.68,351.23,530.35,326.45,521.59z
		 M531.96,695.88c-19.55,30.66-44.32,54.58-73.03,74.29c-14.76,10.14-30.74,18.78-46.96,26.48c-34.14,16.14-44.28,17.03-86.41,11.03
		c3.93-6.04,6.89-11.31,10.58-15.98c33.9-42.86,76.24-74.05,127.49-93.47C485.49,689.92,507.02,687.57,531.96,695.88z
		 M390.36,838.87c52.88,19.14,96.63,50.36,131.31,94.44c3.53,4.46,6.37,9.45,10.1,15.09c-19.34,5.31-36.86,7.75-55.72,1.62
		c-62.04-20.28-111.56-56.77-150.36-111.8C349.2,830.43,369.31,831.24,390.36,838.87z M478.88,977.84
		c15.73-4.38,33.7-0.65,55.39-0.65c-26.52,38.32-55.56,67.11-91.97,87.39c-35.28,19.67-70.84,40.96-116.95,25.59
		c5.43-7.26,10.38-14.4,15.86-21.05C377.91,1024.84,423.57,993.29,478.88,977.84z M383.06,1120.01
		c56.49,19.3,103.53,51.5,139.94,98.9c2.96,3.85,5.27,8.27,8.84,13.91c-19.87,3.93-37.06,7.3-56.04,1.01
		c-62.12-20.52-111.6-57.14-150.53-112.25C345.91,1116.48,363.8,1113.4,383.06,1120.01z M394.37,1106.14
		c56.85-21.37,102.68-53.12,140.63-97.65c-17.96,64.96-19.55,129.28,0.16,194.4C496.85,1159.39,451.92,1126.9,394.37,1106.14z
		 M397.54,823.54c3.16-2.43,5.07-4.74,7.5-5.68c47.89-18.37,88.16-47.4,121.82-86.01c2.35-2.68,6.16-4.06,9.45-5.92
		c-17.03,57.7-20.8,115.77-4.54,174.37c1.99,7.3,4.22,14.56,5.35,22.55C499.4,878,454.43,843.9,397.54,823.54z M525.03,184.41
		c1.22,1.01,2.43,2.03,3.65,3.04c-12.57,55.31-8.27,109.61,7.7,163.26c-2.92-1.38-6.45-2.27-8.35-4.54
		c-31.63-36.7-69.26-65.13-114.07-83.86c-2.23-0.93-4.1-2.76-9.25-6.37C446.08,231.37,485.53,207.89,525.03,184.41z M382.57,275.98
		c3.33-2.43,9.77-3.53,13.63-2.07c55.35,20.6,100.32,54.78,133.58,103.93c0.61,0.85,0.16,2.43,0.2,3.04
		c-25.22,10.3-49.07,4.54-72.79-5.15c-39.98-16.34-75.34-39.21-105.76-73.68C362.86,292.32,372.23,283.56,382.57,275.98z
		 M334.36,361.34c-1.01-8.92-3.41-17.76-3.77-26.68c-0.28-6,1.87-12.08,5.51-18.94c36.86,35.28,77.09,62.12,127.62,80.66
		c-58.92,21.53-105.03,55.11-142.82,100.73C334.72,452.37,339.51,407.36,334.36,361.34z M464.08,680.03
		c-57.46,21.21-102.68,53.04-140.63,97.08c17.52-66.22,18.69-131.63-2.6-197.36C358.93,624.8,404.31,658.9,464.08,680.03z
		 M277.38,386.76c0.32-7.18,7.14-14.56,12.12-20.92c6.65-8.48,14.48-16.06,24.57-27.09c10.14,57.66,6.49,109.69-15.49,164.64
		C282.17,463,275.64,425.45,277.38,386.76z M257.84,404.93c5.92,31.55,11.39,60.66,16.22,86.54
		c-14.44-13.06-29.72-26.84-46.55-42.01C237.68,434.53,247.25,420.5,257.84,404.93z M219.48,462.31
		c18.49,20.32,35.08,38.52,53.28,58.52c-29.81,12.65-54.66,7.34-81.51-6.49C200.62,497.06,209.13,481.37,219.48,462.31z
		 M200.78,537.57c-5.56,3-7.5,4.3-9.57,5.11c-3.37,1.34-6.85,2.39-10.54,3.65C179.41,527.8,187.72,532.46,200.78,537.57z
		 M163.96,579.18c0.93-2.84,3.08-6.2,5.56-7.42c31.1-15.21,61.96-32.48,100.97-17.32c-32.28,48.78-75.26,81.75-127.17,103.73
		c-1.38-0.77-2.72-1.58-4.06-2.39C147.46,630.23,155.57,604.64,163.96,579.18z M211.41,638.99c22.79-16.38,42.5-37.06,64.84-57.02
		c-20.52,65.61-21.7,131.02-0.97,197.16c-38.16-44.69-83.58-77.94-138.08-97.28C162.91,667.26,188.74,655.29,211.41,638.99z
		 M124.54,746.9c2.39-15.17,4.01-30.41,6.37-48.78c59.81,21.45,105.11,57.02,140.71,108.43c-23.28,6.57-43.88,8.96-63.91-1.09
		c-24.61-12.33-48.95-25.26-73.44-37.83C125.64,763.16,123,756.39,124.54,746.9z M121.26,782.54c26.4,13.58,51.5,26.48,76.8,39.5
		c-24.74,12.85-49.55,25.75-76.8,39.9V782.54z M124.91,891.3c-0.28-4.42,4.22-10.58,8.27-13.63c28.14-21.05,59.33-36.7,93.63-44.2
		c13.18-2.84,27.78,0.77,46.43,1.62c-37.06,53.73-82.24,88.97-141.97,111.43C128.8,926.7,125.96,909.06,124.91,891.3z
		 M275.27,864.78c-19.71,66.02-20.64,131.31,1.54,197.4c-14.68-13.79-27.62-27.17-41.89-38.93c-14.44-11.84-29.56-23.07-45.5-32.72
		c-16.3-9.85-33.9-17.48-53.57-27.41C192.43,942.19,237.6,909.27,275.27,864.78z M164.89,1065.47
		c-8.76-25.3-16.59-50.93-22.95-77.62c54.3,20.52,97.08,54.01,128.83,101.99c-35.73,14.35-65.61-0.2-95.42-13.91
		C171.1,1073.94,166.35,1069.69,164.89,1065.47z M179.25,1096.86c7.91,3.12,14.15,5.64,21.49,8.52
		C190.56,1111.94,182.41,1115.92,179.25,1096.86z M192.31,1130.11c25.39-14.88,50.49-18.41,80.58-7.46
		c-17.52,19.59-33.98,37.96-52.43,58.52C210.11,1162.39,201.51,1146.77,192.31,1130.11z M258.04,1236.35
		c-10.02-14.07-19.34-27.21-29.56-41.61c16.75-14.64,32.89-28.75,45.26-39.62C269.43,1177.39,264,1205.45,258.04,1236.35z
		 M315.26,1299.25c-25.3-13.79-40.11-37.35-38.32-62.08c2.23-31.59,7.18-62.61,21.74-95.74
		C320.45,1195.4,323.85,1246.49,315.26,1299.25z M299.97,1068.11c-29.32-52.64-30.58-146.59-0.69-210.26
		C326.17,930.27,326.37,998.15,299.97,1068.11z M300.09,784.25c-29.08-50.69-31.02-145.05-1.01-210.26
		C326.53,646.45,326.08,714.42,300.09,784.25z M462.74,963.6c-10.75,4.7-18.25,7.99-25.71,11.31
		c-39.5,17.64-73.2,43.23-102.15,75.22c-3.57,3.93-7.91,7.14-11.92,10.67c3.81-19.91,8.64-39.66,11.07-59.73
		c5.68-46.63,1.38-92.54-13.38-137.96C358.49,908.66,404.31,942.23,462.74,963.6z M330.59,1311.13
		c10.87-54.06,5.19-107.14-7.83-159.89c1.54,0.49,3.33,0.77,4.38,1.74c19.83,18.29,38.08,38.69,59.69,54.5
		c21.53,15.81,46.39,27.09,72.51,41.89c-45.42,17.44-85.68,42.38-121.17,81.47C334.76,1322.4,329.57,1316.16,330.59,1311.13z
		 M384.72,1367.5c-10.79-7.91-20.68-17.03-33.05-27.45c10.42-9.53,19.38-18.41,28.99-26.52c26.44-22.18,56.69-37.51,88.77-49.76
		c20.19-7.75,39.98-7.22,62.94-0.16c-34.63,50.2-78.87,84.96-133.86,106.04C394.66,1371.1,388.13,1370.01,384.72,1367.5z
		 M528.11,1453.26c-23.68-4.99-90.27-43.23-117.72-67.07c22.18-13.42,45.66-25.3,66.46-40.79c20.92-15.57,39.13-34.67,60.38-53.89
		C520.57,1345.52,516.23,1398.88,528.11,1453.26z M568.66,1470.9c-2.11,1.14-4.26,2.27-6.41,3.41c-5.51-6.61-14.19-12.45-16.1-19.99
		c-13.67-54.46-9.98-108.31,9.12-161.07c0.77-2.15,2.47-3.93,5.15-8.11C584.76,1348.11,587.4,1409.1,568.66,1470.9z M587.19,1481.12
		c15.49-64.64,14.96-127.21-4.34-190.02c38.16,44.28,83.25,77.37,141.77,98.46C670,1410.03,625.56,1440.08,587.19,1481.12z
		 M658.57,1501.88c-15.9-4.79-32.04-8.76-52.27-14.23c54.38-50.12,106.53-93.51,186.86-85.56c-3.81,7.06-5.56,11.48-8.27,15.17
		c-25.34,34.35-57.62,60.54-94.89,81.02C679.69,1503.91,669.8,1505.29,658.57,1501.88z M780.1,1519.6
		c-22.87-2.27-47.24-4.7-71.98-7.18c31.14-27.05,61.03-52.96,88.2-76.56C791.65,1459.87,786.22,1487.97,780.1,1519.6z
		 M655.65,1248.23c57.99-22.91,104.87-54.54,141.77-100.69c-19.95,67.03-20.24,133.37,0.2,200.32
		C759.9,1303.34,715.01,1269.77,655.65,1248.23z M796.4,1056.14c-10.06-8.39-23.97-20.8-38.65-32.2
		c-15.25-11.88-30.58-23.88-47.08-33.86c-16.34-9.85-34.14-17.32-53.45-26.84c56.97-20.84,102.68-54.1,140.43-99.31
		C777.22,930.47,777.34,996.37,796.4,1056.14z M656.58,680.88c79.48-38.28,86.17-43.15,143.19-103.93
		c-22.22,69.87-22.83,136.46-1.91,203.65C759.78,735.02,713.76,701.28,656.58,680.88z M820.41,861.58
		c28.3,68.65,28.39,137.27-0.08,209.61C792.3,998.88,792.22,930.31,820.41,861.58z M820.32,1145.11
		c28.51,68.61,28.35,137.39,0.08,210.1C792.22,1282.7,792.43,1214.05,820.32,1145.11z M799.6,1519.2
		c0.93-32.2,7.46-62.41,19.83-91.36c1.62-0.16,3.2-0.32,4.79-0.53c6.57,29.85,13.1,59.69,20.19,91.89H799.6z M860.71,1519.93
		c-5.88-30.62-11.27-58.76-16.14-84.1c27.29,23.72,56.73,49.35,87.96,76.52C908.48,1514.9,884.44,1517.41,860.71,1519.93z
		 M933.99,1488.46c-29.48-18.09-54.58-41-75.87-68.17c-2.76-3.53-5.15-7.38-7.46-11.23c-0.57-0.89-0.08-2.39-0.08-4.1
		c19.99-6.53,39.29-6.57,59.65,0.77c46.51,16.75,86.5,42.54,119.75,79.16C998.95,1505.9,964.4,1507.07,933.99,1488.46z
		 M1053.7,1480.92c-38.93-39.74-81.91-71.37-137.87-91.2c59.16-21.53,103.93-54.18,141.69-98.5
		C1038.86,1353.99,1038.61,1416.6,1053.7,1480.92z M994.61,1147.34c-22.79-16.38-48.78-28.39-74.49-42.94
		c54.91-20.11,100.24-53.08,138.08-97.89c-20.36,66.26-20.11,131.95,1.18,197.97C1037.07,1184.49,1017.4,1163.73,994.61,1147.34z
		 M1058.32,916.93c-12.73-11.19-26.28-24.01-40.79-35.6c-14.56-11.64-29.48-23.11-45.42-32.72c-16.3-9.85-34.06-17.4-50.49-25.55
		c24.05-13.71,49.88-25.79,72.59-42.13c22.83-16.38,42.58-37.06,65.17-57.18C1038.13,788.91,1037.84,854.16,1058.32,916.93z
		 M1096.2,1449.86c-0.81,13.22-8.03,21.09-23.97,21.49c-18.9-62.85-16.18-123.76,8.27-186.74c13.22,23.68,18.78,47.61,19.75,71.21
		C1101.55,1387.08,1098.1,1418.55,1096.2,1449.86z M1081.43,1208.74c-28.14-68.45-28.59-137.14-0.12-210.1
		C1109.54,1071.35,1108.93,1139.84,1081.43,1208.74z M1081.39,924.31c-28.06-68.33-28.43-136.54-0.04-204.66
		C1109.5,787.81,1108.97,856.06,1081.39,924.31z M1081.43,640.53c-28.47-68.21-28.18-136.5-0.16-204.87
		C1109.42,503.87,1109.21,572.16,1081.43,640.53z M1085.73,350.91c-0.81,2.27-2.6,4.18-5.35,8.43
		c-24.61-63.38-27.13-125.06-7.5-188.64c14.03,0.85,19.67,6.77,22.34,18.78C1107.55,244.35,1104.47,298.04,1085.73,350.91z
		 M1103.09,1007.03c21.25,19.1,41.2,40.31,64.4,57.02c23.28,16.79,49.72,29.16,74.78,43.43c-54.34,19.99-100.93,53.28-138.65,99.68
		C1124.5,1139.76,1125.03,1072.77,1103.09,1007.03z M1116.63,1456.83c-1.18-0.97-2.31-1.91-3.45-2.88
		c9.73-55.47,8.39-110.22-9.53-164.56c35.28,41.36,76.6,73.93,127.05,94.16c0.57,1.66,1.09,3.37,1.66,5.03
		C1193.76,1411.33,1155.2,1434.08,1116.63,1456.83z M1283.62,1344.46c-40.23,33.21-25.26,34.51-75.3,9.45
		c-35-17.52-63.95-43.02-88.04-73.93c-3.85-4.95-7.18-10.26-11.64-16.75c20.6-5.03,38.48-7.58,58.07-0.85
		c46.55,15.94,86.78,40.88,120.8,76.72C1285.81,1341.5,1285,1343.33,1283.62,1344.46z M1309.74,1303.67
		c0.69,9.49,3,18.05-9.77,23.44c-33.74-34.91-72.51-60.79-122.42-78.87c58.27-22.55,104.74-55.19,141.73-102.76
		c-4.66,25.3-11.35,48.38-12.57,71.74C1305.24,1245.92,1307.79,1274.88,1309.74,1303.67z M1319.88,1064.5
		c0.04-0.93,0.12-1.82,0.16-2.72c-0.12-0.37-0.24-0.73-0.41-1.05c-0.08-0.2-0.12-0.45-0.16-0.65c-2.96-1.18-6.53-1.91-8.39-4.06
		c-34.1-40.06-75.59-69.67-124.78-88.4c-1.62-0.61-2.84-2.35-5.68-4.83c54.38-20.28,99.31-52.23,137.14-96.27
		c-18.25,65.04-18.94,129.48,1.7,193.55c0.2,0.12,0.49,0.16,0.69,0.28c-0.04,0.45-0.08,0.93-0.12,1.42
		c0.28,0.65,0.61,1.34,0.81,2.03C1320.85,1063.93,1320.2,1064.25,1319.88,1064.5z M1326.57,340.86
		c27.09,21.82,44.28,45.13,35.89,80.58c-6.04,25.51-10.22,51.5-15.21,77.29c-2.35-0.2-4.7-0.41-7.06-0.61
		C1320.44,447.71,1315.86,395.97,1326.57,340.86z M1362.82,1254.56c-0.36,7.26-6.81,14.68-11.68,21.13
		c-6.49,8.64-14.15,16.42-23.97,27.53c-11.96-56.24-5.96-107.06,14.92-157.1C1358.6,1180.64,1364.81,1217.05,1362.82,1254.56z
		 M1340.19,861.54c29.52,39.82,31.27,155.15,0.73,206.53C1314.32,997.38,1314.56,930.03,1340.19,861.54z M1342.91,783.15
		c-28.99-51.38-28.67-156.24-0.81-204.46C1368.86,623.34,1371.74,723.58,1342.91,783.15z M1370.85,605.7
		c-2.14-7.28-3.85-14.72-4.54-23.24c38,43.67,83.21,76.6,137.14,96.35c-24.33,13.54-49.11,24.82-70.96,40.27
		c-20.28,14.31-37.35,33.25-56.12,49.8c-3.61,3.2-8.6,4.87-12.94,7.22C1363.63,777.07,1394.48,685.97,1370.85,605.7z
		 M1382.85,1237.04c-5.88-30.74-11.23-58.47-15.98-83.09c13.1,12.29,28.1,26.32,44.28,41.4
		C1402.44,1208.21,1393.56,1221.31,1382.85,1237.04z M1420.44,1181.24c-18.29-20.32-34.83-38.69-53.12-58.96
		c29.72-9.53,54.58-7.95,80.78,7.5C1439.58,1145.68,1430.99,1161.66,1420.44,1181.24z M1440.19,1105.21
		c7.18-2.72,13.38-5.11,20.28-7.7C1455.8,1112.83,1455.8,1112.83,1440.19,1105.21z M1484.92,1039.19
		c-4.74,12.73-9.45,29.6-19.51,35.44c-22.3,12.98-46.51,25.83-74.74,20.11c-6.29-1.26-12.69-2.11-20.36-3.37
		c23.32-42.42,80.94-89.21,129.56-104.3C1494.61,1005.82,1490.96,1022.97,1484.92,1039.19z M1365.86,1062.55
		c19.71-65.9,19.75-131.1-0.08-196.96c38.04,43.92,82.89,77.09,142.25,98.38C1449.03,985.3,1403.9,1018.31,1365.86,1062.55z
		 M1508.89,946.21c-58.23-21.7-103.28-56.49-138.93-107.18c14.84-6.53,29.36-9.49,44.16-5.84c34.23,8.35,65.49,23.48,93.59,44.65
		c4.3,3.28,8.52,10.38,8.15,15.41C1514.73,910.48,1511.52,927.55,1508.89,946.21z M1442.91,822.2c23.93-12.45,48.7-25.39,76.16-39.7
		v79.12C1492.67,847.95,1467.77,835.06,1442.91,822.2z"/>
	<g>
		<path class="st16" d="M822,1610.91c-435.11,0-789.1-353.99-789.1-789.1S386.89,32.71,822,32.71c435.11,0,789.1,353.99,789.1,789.1
			S1257.11,1610.91,822,1610.91z M822,52.99c-423.93,0-768.82,344.89-768.82,768.82S398.07,1590.64,822,1590.64
			c423.93,0,768.82-344.89,768.82-768.82S1245.93,52.99,822,52.99z"/>
	</g>
</g>
</svg>
